<svg height="941" viewBox="0 0 1214 941" width="1214" xmlns="http://www.w3.org/2000/svg"><g fill="none" fill-rule="evenodd"><path d="m317.77 514.46-1.9-.6 5.14-16.08 1.9.6zm9.66-1.3c-.866671 0-1.66333-.106666-2.39-.32s-1.343331-.519998-1.85-.92l.7-1.74c1.040005.760004 2.233327 1.14 3.58 1.14.573336 0 1.009999-.093332 1.31-.28s.45-.453332.45-.8c0-.293335-.103332-.519999-.31-.68s-.576664-.306666-1.11-.44l-1.6-.36c-.906671-.200001-1.579998-.526664-2.02-.98s-.66-1.039996-.66-1.76c0-.600003.169998-1.129998.51-1.59s.81333-.816665 1.42-1.07 1.309996-.38 2.11-.38c.693337 0 1.36333.106666 2.01.32s1.216664.513331 1.71.9l-.7 1.7c-1.013338-.733337-2.026662-1.1-3.04-1.1-.546669 0-.973332.099999-1.28.3s-.46.479998-.46.84c0 .266668.096666.486666.29.66s.503331.306666.93.4l1.66.38c.973338.213334 1.686664.549998 2.14 1.01s.68 1.06333.68 1.81c0 .906671-.366663 1.626664-1.1 2.16s-1.72666.8-2.98.8zm10.3-10.18c1.37334 0 2.39333.33333 3.06 1s1 1.693326 1 3.08v5.94h-2.38v-1.5c-.226668.520003-.583331.926665-1.07 1.22s-1.049997.44-1.69.44c-.653337 0-1.246664-.133332-1.78-.4s-.953332-.633331-1.26-1.1-.46-.986664-.46-1.56c0-.720004.183331-1.286665.55-1.7.366668-.413335.963329-.713332 1.79-.9.757782-.171112 1.778837-.263796 3.063193-.278056l.856807-.001944v-.46c0-.66667-.143332-1.146665-.43-1.44s-.76333-.44-1.43-.44c-.520003 0-1.06333.089999-1.63.27-.566669.180001-1.123331.429998-1.67.75l-.7-1.72c.546669-.346668 1.206663-.633332 1.98-.86s1.506663-.34 2.2-.34zm-.58 8.38c.66667 0 1.209998-.223331 1.63-.67s.63-1.02333.63-1.73v-.42h-.36c-.893338 0-1.586664.04-2.08.12s-.846666.219999-1.06.42-.32.473332-.32.82c0 .426669.146665.776665.44 1.05s.666664.41 1.12.41zm10.36-8.14h2.58v1.88h-2.58v7.9h-2.5v-7.9h-1.88v-1.88h1.88c0-1.4.36333-2.45333 1.09-3.16.678226-.659559 1.707786-1.046163 3.08871-1.159822l1.28129-.080178.16 1.86-.94.04c-.786671.04-1.346665.216665-1.68.53s-.5.816663-.5 1.51zm8.18-.24c1.37334 0 2.39333.33333 3.06 1s1 1.693326 1 3.08v5.94h-2.38v-1.5c-.226668.520003-.583331.926665-1.07 1.22s-1.049997.44-1.69.44c-.653337 0-1.246664-.133332-1.78-.4s-.953332-.633331-1.26-1.1-.46-.986664-.46-1.56c0-.720004.183332-1.286665.55-1.7.366669-.413335.963329-.713332 1.79-.9.757782-.171112 1.778837-.263796 3.063193-.278056l.856807-.001944v-.46c0-.66667-.143332-1.146665-.43-1.44s-.76333-.44-1.43-.44c-.520003 0-1.063331.089999-1.63.27s-1.123331.429998-1.67.75l-.7-1.72c.546669-.346668 1.206663-.633332 1.98-.86s1.506663-.34 2.2-.34zm-.58 8.38c.66667 0 1.209998-.223331 1.63-.67s.63-1.02333.63-1.73v-.42h-.36c-.893338 0-1.586664.04-2.08.12s-.846666.219999-1.06.42-.32.473332-.32.82c0 .426669.146665.776665.44 1.05s.666664.41 1.12.41zm13.62-6.3-1.46.14c-1.653342.173334-2.48 1.013326-2.48 2.52v5.28h-2.5v-9.78h2.38v1.72c.478521-1.108154 1.438697-1.740576 2.880554-1.897284l1.019446-.082716zm1.22 7.94v-9.78h2.5v9.78zm-.14-14.32h2.76v2.46h-2.76z" fill="#fff" fill-rule="nonzero"/><circle cx="399.5" cy="506.5" fill="#4c7ef3" fill-rule="nonzero" r="5.5"/><path d="m823.04 514.46-1.9-.6 5.14-16.08 1.9.6zm19.26-11.24h2.44l-3.84 9.78h-2.18l-2.4-6.3-2.34 6.3h-2.16l-3.86-9.78h2.56l2.5 6.8 2.5-6.8h1.8l2.5 6.84zm12.5 5.34h-6.66c.08.906671.353331 1.579998.82 2.02s1.133329.66 2 .66c1.080005 0 2.066662-.346663 2.96-1.04l.72 1.72c-.453336.373335-1.02333.673332-1.71.9s-1.376663.34-2.07.34c-1.600008 0-2.863329-.453329-3.79-1.36s-1.39-2.146659-1.39-3.72c0-1.000005.199998-1.886663.6-2.66.4-.773337.96333-1.373331 1.69-1.8s1.549995-.64 2.47-.64c1.346673 0 2.409996.433329 3.19 1.3s1.17 2.059992 1.17 3.58zm-4.3-3.82c-.66667 0-1.203331.213331-1.61.64s-.656666 1.039996-.75 1.84h4.52c-.026667-.813337-.226665-1.429998-.6-1.85s-.89333-.63-1.56-.63zm15.78-5.84v14.1h-2.48v-1.58c-.293335.546669-.716664.973332-1.27 1.28s-1.18333.46-1.89.46c-.84 0-1.589997-.213331-2.25-.64s-1.173332-1.029996-1.54-1.81c-.366669-.780004-.55-1.676662-.55-2.69s.183331-1.899996.55-2.66c.366668-.760004.876663-1.346665 1.53-1.76s1.406662-.62 2.26-.62c.70667 0 1.333331.146665 1.88.44s.966665.706664 1.26 1.24v-5.76zm-4.98 12.32c.800004 0 1.416664-.273331 1.85-.82.433335-.546669.65-1.326662.65-2.34s-.216665-1.789997-.65-2.33c-.433336-.540003-1.043329-.81-1.83-.81-.800004 0-1.419998.266664-1.86.8s-.66 1.299995-.66 2.3c0 1.013338.219998 1.799997.66 2.36s1.053329.84 1.84.84zm17-12.32v14.1h-2.48v-1.58c-.293335.546669-.716664.973332-1.27 1.28s-1.18333.46-1.89.46c-.84 0-1.589997-.213331-2.25-.64s-1.173332-1.029996-1.54-1.81-.55-1.676662-.55-2.69.183332-1.899996.55-2.66.876663-1.346665 1.53-1.76 1.406662-.62 2.26-.62c.70667 0 1.333331.146665 1.88.44s.966665.706664 1.26 1.24v-5.76zm-4.98 12.32c.800004 0 1.416664-.273331 1.85-.82.433335-.546669.65-1.326662.65-2.34s-.216665-1.789997-.65-2.33c-.433336-.540003-1.043329-.81-1.83-.81-.800004 0-1.419998.266664-1.86.8s-.66 1.299995-.66 2.3c0 1.013338.219998 1.799997.66 2.36s1.053329.84 1.84.84zm7.56 1.78v-9.78h2.5v9.78zm-.14-14.32h2.76v2.46h-2.76zm10.9 4.3c1.173339 0 2.046664.33333 2.62 1s.86 1.673327.86 3.02v6h-2.5v-5.86c0-.760004-.143332-1.313332-.43-1.66s-.736664-.52-1.35-.52c-.720004 0-1.296664.226664-1.73.68-.433335.453336-.65 1.059996-.65 1.82v5.54h-2.5v-9.78h2.44v1.46c.333335-.546669.779997-.966665 1.34-1.26s1.19333-.44 1.9-.44z" fill="#fff" fill-rule="nonzero"/><path d="m901.5 502.98c.720004 0 1.359997.149998 1.92.45.560003.300001.986665.723331 1.28 1.27v-1.48h2.48v8.88c0 1.533341-.423329 2.693329-1.27 3.48s-2.096658 1.18-3.75 1.18c-.853338 0-1.673329-.109999-2.46-.33s-1.47333-.529998-2.06-.93l.7-1.76c1.213339.733337 2.46666 1.1 3.76 1.1 1.733342 0 2.6-.853325 2.6-2.56v-1.28c-.293335.546669-.719997.969998-1.28 1.27-.560003.300001-1.199996.45-1.92.45-.853338 0-1.609997-.203331-2.27-.61s-1.176665-.976663-1.55-1.71-.56-1.579995-.56-2.54.183332-1.809996.55-2.55c.366669-.740004.88333-1.313331 1.55-1.72s1.426662-.61 2.28-.61zm.66 1.94c-.786671 0-1.406664.259997-1.86.78s-.68 1.239995-.68 2.16c0 .893338.226664 1.603331.68 2.13s1.073329.79 1.86.79c.800004 0 1.423331-.259997 1.87-.78s.67-1.233329.67-2.14c0-.920005-.223331-1.639997-.67-2.16s-1.069996-.78-1.87-.78z" fill="#fff" fill-rule="nonzero"/><path d="m573.47 293.46-1.9-.6 5.14-16.08 1.9.6zm11.68-11.48c.840004 0 1.589997.213331 2.25.64s1.173331 1.029996 1.54 1.81.55 1.676662.55 2.69-.183331 1.899996-.55 2.66-.876663 1.346665-1.53 1.76-1.406662.62-2.26.62c-.693337 0-1.313331-.146665-1.86-.44s-.966665-.699997-1.26-1.22v5.1h-2.5v-13.38h2.46v1.48c.293335-.546669.716664-.969998 1.27-1.27s1.18333-.45 1.89-.45zm-.66 8.24c.786671 0 1.399998-.269997 1.84-.81s.66-1.303328.66-2.29c0-1.013338-.219998-1.799997-.66-2.36s-1.053329-.84-1.84-.84c-.800004 0-1.416665.273331-1.85.82-.433336.546669-.65 1.326662-.65 2.34 0 1.000005.216664 1.773331.65 2.32.433335.546669 1.049996.82 1.85.82zm12.74-8.24c1.173339 0 2.046664.33333 2.62 1s.86 1.673327.86 3.02v6h-2.5v-5.86c0-.760004-.143332-1.313332-.43-1.66s-.736664-.52-1.35-.52c-.720004 0-1.296664.226664-1.73.68-.433335.453336-.65 1.059996-.65 1.82v5.54h-2.5v-14.1h2.5v5.68c.333335-.520003.776664-.916665 1.33-1.19s1.17-.41 1.85-.41zm10.48 10.18c-1 0-1.876663-.206665-2.63-.62s-1.336665-1.006663-1.75-1.78-.62-1.673328-.62-2.7.206665-1.92333.62-2.69c.413335-.766671.996663-1.356665 1.75-1.77s1.63-.62 2.63-.62 1.876663.206665 2.63.62 1.333331 1.003329 1.74 1.77c.406669.76667.61 1.663328.61 2.69s-.203331 1.926663-.61 2.7-.986663 1.366665-1.74 1.78-1.63.62-2.63.62zm-.02-1.94c.813337 0 1.433331-.266664 1.86-.8s.64-1.319995.64-2.36c0-1.026672-.213331-1.809997-.64-2.35s-1.039996-.81-1.84-.81-1.416664.269997-1.85.81c-.433335.540003-.65 1.323328-.65 2.35 0 1.040005.213331 1.826664.64 2.36s1.039996.8 1.84.8zm12.06.06c.293335 0 .599998-.02.92-.06l-.12 1.86c-.400002.04-.766665.06-1.1.06-1.37334 0-2.386663-.316664-3.04-.95s-.98-1.57666-.98-2.83v-4.26h-1.88v-1.88h1.88v-2.92h2.5v2.92h2.58v1.88h-2.58v4.22c0 1.306673.606661 1.96 1.82 1.96zm6.84 1.88c-1 0-1.876663-.206665-2.63-.62s-1.336665-1.006663-1.75-1.78-.62-1.673328-.62-2.7.206665-1.92333.62-2.69c.413335-.766671.996663-1.356665 1.75-1.77s1.63-.62 2.63-.62 1.876663.206665 2.63.62 1.333331 1.003329 1.74 1.77c.406669.76667.61 1.663328.61 2.69s-.203331 1.926663-.61 2.7-.986663 1.366665-1.74 1.78-1.63.62-2.63.62zm-.02-1.94c.813337 0 1.433331-.266664 1.86-.8s.64-1.319995.64-2.36c0-1.026672-.213331-1.809997-.64-2.35s-1.039996-.81-1.84-.81-1.416664.269997-1.85.81c-.433335.540003-.65 1.323328-.65 2.35 0 1.040005.213331 1.826664.64 2.36s1.039996.8 1.84.8zm10.66 1.94c-.866671 0-1.66333-.106666-2.39-.32s-1.343331-.519998-1.85-.92l.7-1.74c1.040005.760004 2.233327 1.14 3.58 1.14.573336 0 1.009999-.093332 1.31-.28s.45-.453332.45-.8c0-.293335-.103332-.519999-.31-.68s-.576664-.306666-1.11-.44l-1.6-.36c-.906671-.200001-1.579998-.526664-2.02-.98s-.66-1.039996-.66-1.76c0-.600003.169998-1.129998.51-1.59s.81333-.816665 1.42-1.07 1.309996-.38 2.11-.38c.693337 0 1.36333.106666 2.01.32s1.216664.513331 1.71.9l-.7 1.7c-1.013338-.733337-2.026662-1.1-3.04-1.1-.546669 0-.973332.099999-1.28.3s-.46.479998-.46.84c0 .266668.096666.486666.29.66s.503331.306666.93.4l1.66.38c.973338.213334 1.686664.549998 2.14 1.01s.68 1.06333.68 1.81c0 .906671-.366663 1.626664-1.1 2.16s-1.72666.8-2.98.8z" fill="#fff" fill-rule="nonzero"/><circle cx="808.5" cy="506.5" fill="#4c7ef3" fill-rule="nonzero" r="5.5"/><circle cx="290.5" cy="506.5" fill="#4c7ef3" fill-rule="nonzero" r="5.5"/><path d="m941.14 723.98c.853338 0 1.606663.206665 2.26.62s1.163332.999996 1.53 1.76c.366669.760004.55 1.646662.55 2.66s-.183331 1.909996-.55 2.69c-.366668.780004-.879997 1.383331-1.54 1.81s-1.409996.64-2.25.64c-.70667 0-1.336664-.153332-1.89-.46s-.976665-.733331-1.27-1.28v1.58h-2.46v-14.1h2.5v5.74c.293335-.533336.713331-.943332 1.26-1.23s1.166663-.43 1.86-.43zm-.66 8.24c.786671 0 1.399998-.279997 1.84-.84s.66-1.346662.66-2.36c0-1.000005-.216664-1.766664-.65-2.3-.433335-.533336-1.049996-.8-1.85-.8s-1.416665.269997-1.85.81c-.433336.540003-.65 1.316662-.65 2.33s.216664 1.793331.65 2.34c.433335.546669 1.049996.82 1.85.82zm13.5-6.16-1.46.14c-1.653342.173334-2.48 1.013326-2.48 2.52v5.28h-2.5v-9.78h2.38v1.72c.478521-1.108154 1.438697-1.740576 2.880554-1.897284l1.019446-.082716zm1.22 7.94v-9.78h2.5v9.78zm-.14-14.32h2.76v2.46h-2.76zm14.66.22v14.1h-2.48v-1.58c-.293335.546669-.716664.973332-1.27 1.28s-1.18333.46-1.89.46c-.84 0-1.589997-.213331-2.25-.64s-1.173331-1.029996-1.54-1.81c-.366668-.780004-.55-1.676662-.55-2.69s.183332-1.899996.55-2.66c.366669-.760004.876663-1.346665 1.53-1.76s1.406662-.62 2.26-.62c.70667 0 1.333331.146665 1.88.44s.966665.706664 1.26 1.24v-5.76zm-4.98 12.32c.800004 0 1.416665-.273331 1.85-.82.433336-.546669.65-1.326662.65-2.34s-.216664-1.789997-.65-2.33c-.433335-.540003-1.043329-.81-1.83-.81-.800004 0-1.419998.266664-1.86.8s-.66 1.299995-.66 2.3c0 1.013338.219998 1.799997.66 2.36s1.053329.84 1.84.84zm16.14-2.66h-6.66c.08.906671.353331 1.579998.82 2.02s1.133329.66 2 .66c1.080005 0 2.066662-.346663 2.96-1.04l.72 1.72c-.453336.373335-1.02333.673332-1.71.9s-1.376663.34-2.07.34c-1.600008 0-2.863329-.453329-3.79-1.36s-1.39-2.146659-1.39-3.72c0-1.000005.199998-1.886663.6-2.66.4-.773337.96333-1.373331 1.69-1.8s1.549995-.64 2.47-.64c1.346673 0 2.409996.433329 3.19 1.3s1.17 2.059992 1.17 3.58zm-4.3-3.82c-.66667 0-1.203331.213331-1.61.64s-.656666 1.039996-.75 1.84h4.52c-.026667-.813337-.226665-1.429998-.6-1.85s-.89333-.63-1.56-.63zm6.12 5.5h2.8v2.76h-2.8zm7.68 2.32c0 1.37334-.319997 2.37333-.96 3s-1.706659.986666-3.2 1.08l-.94.06-.18-1.82.98-.08c.613336-.04 1.066665-.203332 1.36-.49s.44-.72333.44-1.31v-9.78h2.5zm-2.66-13.88h2.76v2.46h-2.76zm10.86 4.3c.840004 0 1.59.213331 2.25.64s1.17333 1.029996 1.54 1.81.55 1.676662.55 2.69-.18333 1.899996-.55 2.66-.87666 1.346665-1.53 1.76-1.406662.62-2.26.62c-.693337 0-1.313331-.146665-1.86-.44s-.966665-.699997-1.26-1.22v5.1h-2.5v-13.38h2.46v1.48c.293335-.546669.716664-.969999 1.27-1.27s1.18333-.45 1.89-.45zm-.66 8.24c.786671 0 1.399998-.269997 1.84-.81.44-.540003.66-1.303328.66-2.29 0-1.013338-.22-1.799997-.66-2.36-.440002-.560003-1.053329-.84-1.84-.84-.800004 0-1.416664.273331-1.85.82-.433335.546669-.65 1.326662-.65 2.34 0 1.000005.216665 1.773331.65 2.32.433336.546669 1.049996.82 1.85.82z" fill="#fff" fill-rule="nonzero"/><path d="m1008.82 723.98c.72 0 1.36.149998 1.92.45.56.300001.98667.723331 1.28 1.27v-1.48h2.48v8.88c0 1.533341-.42333 2.693329-1.27 3.48s-2.09666 1.18-3.75 1.18c-.85334 0-1.67333-.109999-2.46-.33s-1.47333-.529998-2.06-.93l.7-1.76c1.21334.733337 2.46666 1.1 3.76 1.1 1.73334 0 2.6-.853325 2.6-2.56v-1.28c-.29333.546669-.72.969998-1.28 1.27-.56.300001-1.2.45-1.92.45-.85334 0-1.61-.203331-2.27-.61s-1.17666-.976663-1.55-1.71-.56-1.579995-.56-2.54.18333-1.809996.55-2.55.88333-1.313331 1.55-1.72 1.42666-.61 2.28-.61zm.66 1.94c-.78667 0-1.40666.259997-1.86.78s-.68 1.239995-.68 2.16c0 .893338.22666 1.603331.68 2.13s1.07333.79 1.86.79c.8 0 1.42333-.259997 1.87-.78s.67-1.233329.67-2.14c0-.920005-.22333-1.639997-.67-2.16s-1.07-.78-1.87-.78z" fill="#fff" fill-rule="nonzero"/><circle cx="552" cy="286.5" fill="#4c7ef3" fill-rule="nonzero" r="5.5"/><circle cx="660.5" cy="286.5" fill="#4c7ef3" fill-rule="nonzero" r="5.5"/><circle cx="1028.5" cy="727.5" fill="#4c7ef3" fill-rule="nonzero" r="5.5"/><path d="m583.132 491.144c-.864004 0-1.674663-.117332-2.432-.352s-1.397331-.565331-1.92-.992l.688-1.504c.544003.416002 1.11733.719999 1.72.912s1.255996.288 1.96.288c.778671 0 1.378665-.135999 1.8-.408s.632-.653331.632-1.144c0-.426669-.194665-.751999-.584-.976-.350402-.201601-.910317-.394559-1.679759-.57888l-.264241-.06112c-.938671-.202668-1.70133-.437332-2.288-.704s-1.029332-.607998-1.328-1.024-.448-.943997-.448-1.584c0-.661337.181332-1.253331.544-1.776s.874663-.930665 1.536-1.224 1.423996-.44 2.288-.44c.789337 0 1.54133.119999 2.256.36s1.301331.567998 1.76.984l-.688 1.504c-1.002672-.800004-2.111994-1.2-3.328-1.2-.725337 0-1.298665.146665-1.72.44s-.632.701331-.632 1.224c0 .437336.186665.773332.56 1.008.336002.211201.883677.409439 1.643039.59472l.260961.06128c.949338.213334 1.719997.450665 2.312.712s1.045332.594665 1.36 1 .472.91733.472 1.536c0 .672003-.178665 1.261331-.536 1.768s-.874663.895999-1.552 1.168-1.474662.408-2.392.408zm6.208-.144v-7.824h2v7.824zm-.112-11.456h2.208v1.968h-2.208zm8.672 3.44c.68267 0 1.285331.165332 1.808.496s.930665.799997 1.224 1.408.44 1.317329.44 2.128-.146665 1.527997-.44 2.152-.703997 1.106665-1.232 1.448-1.127997.512-1.8.512c-.565336 0-1.069331-.122665-1.512-.368s-.781332-.586664-1.016-1.024v1.264h-1.968v-11.28h2v4.592c.234668-.426669.570664-.754666 1.008-.984s.933331-.344 1.488-.344zm-.528 6.592c.629336 0 1.119998-.223998 1.472-.672s.528-1.077329.528-1.888c0-.800004-.173332-1.413331-.52-1.84s-.839997-.64-1.48-.64-1.133332.215998-1.48.648-.52 1.053329-.52 1.864.173332 1.434664.52 1.872.839997.656 1.48.656zm5.648 1.424v-11.28h2v11.28zm4.064 0v-7.824h2v7.824zm-.112-11.456h2.208v1.968h-2.208zm8.72 3.44c.938671 0 1.637331.266664 2.096.8s.688 1.338661.688 2.416v4.8h-2v-4.688c0-.608003-.114666-1.050665-.344-1.328s-.589331-.416-1.08-.416c-.576003 0-1.037332.181332-1.384.544s-.52.847997-.52 1.456v4.432h-2v-7.824h1.952v1.168c.266668-.437336.623998-.773332 1.072-1.008s.954664-.352 1.52-.352zm12.432.192v7.104c0 1.226673-.338663 2.154664-1.016 2.784s-1.677327.944-3 .944c-.68267 0-1.338664-.087999-1.968-.264s-1.178664-.423998-1.648-.744l.56-1.408c.970672.58667 1.973328.88 3.008.88 1.386674 0 2.08-.68266 2.08-2.048v-1.024c-.234668.437336-.575998.775999-1.024 1.016s-.959997.36-1.536.36c-.68267 0-1.287997-.162665-1.816-.488s-.941332-.78133-1.24-1.368-.448-1.263996-.448-2.032.146665-1.447997.44-2.04.706664-1.050665 1.24-1.376 1.14133-.488 1.824-.488c.576003 0 1.087998.119999 1.536.36s.789332.578664 1.024 1.016v-1.184zm-4.016 6.048c.640003 0 1.138665-.207998 1.496-.624s.536-.986663.536-1.712c0-.736004-.178665-1.311998-.536-1.728s-.855997-.624-1.496-.624c-.629336 0-1.125332.207998-1.488.624s-.544.991996-.544 1.728c0 .71467.181332 1.282665.544 1.704s.858664.632 1.488.632zm8.96 1.904c-.693337 0-1.330664-.085332-1.912-.256s-1.074665-.415998-1.48-.736l.56-1.392c.832004.608003 1.786661.912 2.864.912.458669 0 .807999-.074666 1.048-.224s.36-.362665.36-.64c0-.234668-.082666-.415999-.248-.544s-.461331-.245333-.888-.352l-1.28-.288c-.725337-.160001-1.263998-.421332-1.616-.784s-.528-.831997-.528-1.408c0-.480002.135999-.903998.408-1.272s.650664-.653332 1.136-.856 1.047997-.304 1.688-.304c.554669 0 1.090664.085332 1.608.256s.973331.410665 1.368.72l-.56 1.36c-.810671-.58667-1.621329-.88-2.432-.88-.437336 0-.778665.079999-1.024.24s-.368.383999-.368.672c0 .213334.077333.389333.232.528s.402665.245333.744.32l1.328.304c.778671.170668 1.349332.439998 1.712.808s.544.850664.544 1.448c0 .725337-.29333 1.301331-.88 1.728s-1.381328.64-2.384.64z" fill="#4c7ef3" fill-rule="nonzero"/><path d="m104.86 512.144c-1.109339 0-2.077329-.237331-2.904-.712s-1.461331-1.149329-1.904-2.024c-.4426689-.874671-.664-1.893328-.664-3.056s.2213311-2.178662.664-3.048c.442669-.869338 1.077329-1.541331 1.904-2.016s1.794661-.712 2.904-.712c.757337 0 1.471997.117332 2.144.352s1.237331.565331 1.696.992l-.688 1.504c-.512003-.405335-1.018664-.701332-1.52-.888s-1.034664-.28-1.6-.28c-1.088005 0-1.927997.351996-2.52 1.056s-.888 1.717327-.888 3.04c0 1.33334.295997 2.351996.888 3.056s1.431995 1.056 2.52 1.056c.565336 0 1.098664-.093332 1.6-.28s1.007997-.482665 1.52-.888l.688 1.504c-.458669.426669-1.023997.757332-1.696.992s-1.386663.352-2.144.352zm10.096-8.16c.938671 0 1.637331.266664 2.096.8s.688 1.338661.688 2.416v4.8h-2v-4.688c0-.608003-.114666-1.050665-.344-1.328s-.589331-.416-1.08-.416c-.576003 0-1.037332.181332-1.384.544s-.52.847997-.52 1.456v4.432h-2v-11.28h2v4.544c.266668-.416002.621331-.733332 1.064-.952s.936-.328 1.48-.328zm4.816 8.016v-7.824h2v7.824zm-.112-11.456h2.208v1.968h-2.208zm4.176 11.456v-11.28h2v11.28z" fill="#4c7ef3" fill-rule="nonzero"/><path d="m135.452 500.72v11.28h-1.984v-1.264c-.234668.437336-.573331.778665-1.016 1.024s-.946664.368-1.512.368c-.672003 0-1.271997-.170665-1.8-.512s-.938665-.823997-1.232-1.448-.44-1.341329-.44-2.152.146665-1.519997.44-2.128.701331-1.077332 1.224-1.408 1.12533-.496 1.808-.496c.565336 0 1.066664.117332 1.504.352s.773332.565331 1.008.992v-4.608zm-3.968 4.816c-.640003 0-1.135998.213331-1.488.64s-.528 1.039996-.528 1.84c0 .810671.175998 1.439998.528 1.888s.842664.672 1.472.672c.640003 0 1.133332-.218664 1.48-.656s.52-1.061329.52-1.872-.173332-1.431998-.52-1.864-.834664-.648-1.464-.648z" fill="#4c7ef3" fill-rule="nonzero"/><path d="m349.672 280.72h4.928c1.205339 0 2.143997.30133 2.816.904s1.008 1.447995 1.008 2.536-.335997 1.935997-1.008 2.544-1.610661.912-2.816.912h-2.864v4.384h-2.064zm4.672 5.312c1.418674 0 2.128-.61866 2.128-1.856 0-.629336-.175998-1.095998-.528-1.4s-.88533-.456-1.6-.456h-2.608v3.712zm9.072-2.048c1.098672 0 1.914664.266664 2.448.8s.8 1.354661.8 2.464v4.752h-1.904v-1.2c-.181334.416002-.466665.741332-.856.976s-.839997.352-1.352.352c-.522669 0-.997331-.106666-1.424-.32s-.762665-.506665-1.008-.88-.368-.789331-.368-1.248c0-.576003.146665-1.029332.44-1.36s.770663-.570666 1.432-.72c.595203-.134401 1.393436-.20832 2.394719-.22176l.741281-.00224v-.368c0-.533336-.114666-.917332-.344-1.152s-.610664-.352-1.144-.352c-.416002 0-.850664.071999-1.304.216s-.898664.343999-1.336.6l-.56-1.376c.437336-.277335.96533-.506666 1.584-.688s1.205331-.272 1.76-.272zm-.464 6.704c.533336 0 .967998-.178665 1.304-.536s.504-.818664.504-1.384v-.336h-.288c-.71467 0-1.269331.032-1.664.096s-.677332.175999-.848.336-.256.378665-.256.656c0 .341335.117332.621332.352.84s.533332.328.896.328zm10.896-5.04-1.168.112c-1.322673.138667-1.984.810661-1.984 2.016v4.224h-2v-7.824h1.904v1.376c.405335-.938671 1.24266-1.450666 2.512-1.536l.608-.048zm7.84 2.8h-5.328c.064.725337.282665 1.263998.656 1.616s.906663.528 1.6.528c.864004 0 1.65333-.277331 2.368-.832l.576 1.376c-.362668.298668-.818664.538666-1.368.72s-1.101331.272-1.656.272c-1.280006 0-2.290663-.362663-3.032-1.088s-1.112-1.717327-1.112-2.976c0-.800004.159998-1.50933.48-2.128s.770664-1.098665 1.352-1.44 1.239996-.512 1.976-.512c1.077339 0 1.927997.346663 2.552 1.04s.936 1.647994.936 2.864zm-3.44-3.056c-.533336 0-.962665.170665-1.288.512s-.525333.831997-.6 1.472h3.616c-.021333-.65067-.181332-1.143998-.48-1.48s-.714664-.504-1.248-.504zm9.616-1.408c.938671 0 1.637331.266664 2.096.8s.688 1.338661.688 2.416v4.8h-2v-4.688c0-.608003-.114666-1.050665-.344-1.328s-.589331-.416-1.08-.416c-.576003 0-1.037332.181332-1.384.544s-.52.847997-.52 1.456v4.432h-2v-7.824h1.952v1.168c.266668-.437336.623998-.773332 1.072-1.008s.954664-.352 1.52-.352zm8.816 6.64c.234668 0 .479999-.016.736-.048l-.096 1.488c-.320002.032-.613332.048-.88.048-1.098672 0-1.909331-.253331-2.432-.76s-.784-1.261328-.784-2.264v-3.408h-1.504v-1.504h1.504v-2.336h2v2.336h2.064v1.504h-2.064v3.376c0 1.045339.485328 1.568 1.456 1.568z" fill="#4c7ef3" fill-rule="nonzero"/><path d="m823.672 292h-2.24l-1.936-3.6c-.181334-.341335-.405332-.581333-.672-.72s-.602665-.208-1.008-.208h-1.568v4.528h-2.032v-11.28h4.992c1.280006 0 2.25333.28533 2.92.856s1 1.394661 1 2.472c0 .864004-.242664 1.575997-.728 2.136s-1.170662.925332-2.056 1.096c.597336.160001 1.077332.58133 1.44 1.264zm-4.752-6.112c.778671 0 1.349332-.146665 1.712-.44s.544-.743997.544-1.352c0-.61867-.181332-1.069332-.544-1.352s-.933329-.424-1.712-.424h-2.688v3.568zm9.808 6.24c-.800004 0-1.50133-.165332-2.104-.496s-1.069332-.80533-1.4-1.424-.496-1.338663-.496-2.16.165332-1.538664.496-2.152.79733-1.085332 1.4-1.416 1.303996-.496 2.104-.496 1.50133.165332 2.104.496 1.066665.802664 1.392 1.416.488 1.330663.488 2.152-.162665 1.54133-.488 2.16-.78933 1.093332-1.392 1.424-1.303996.496-2.104.496zm-.016-1.552c.65067 0 1.146665-.213331 1.488-.64s.512-1.055996.512-1.888c0-.821337-.170665-1.447998-.512-1.88s-.831997-.648-1.472-.648-1.133332.215998-1.48.648-.52 1.058663-.52 1.88c0 .832004.170665 1.461331.512 1.888s.831997.64 1.472.64zm9.216 1.552c-.800004 0-1.50133-.165332-2.104-.496s-1.069332-.80533-1.4-1.424-.496-1.338663-.496-2.16.165332-1.538664.496-2.152.79733-1.085332 1.4-1.416 1.303996-.496 2.104-.496 1.50133.165332 2.104.496 1.066665.802664 1.392 1.416.488 1.330663.488 2.152-.162665 1.54133-.488 2.16-.78933 1.093332-1.392 1.424-1.303996.496-2.104.496zm-.016-1.552c.65067 0 1.146665-.213331 1.488-.64s.512-1.055996.512-1.888c0-.821337-.170665-1.447998-.512-1.88s-.831997-.648-1.472-.648-1.133332.215998-1.48.648-.52 1.058663-.52 1.88c0 .832004.170665 1.461331.512 1.888s.831997.64 1.472.64zm9.648.048c.234668 0 .479999-.016.736-.048l-.096 1.488c-.320002.032-.613332.048-.88.048-1.098672 0-1.909331-.253331-2.432-.76s-.784-1.261328-.784-2.264v-3.408h-1.504v-1.504h1.504v-2.336h2v2.336h2.064v1.504h-2.064v3.376c0 1.045339.485328 1.568 1.456 1.568z" fill="#4c7ef3" fill-rule="nonzero"/><path d="m462.684 111v-16.772h-6.44v-2.968h16.492v2.968h-6.44v16.772zm21.224-11.116-2.044.196c-2.314678.242668-3.472 1.418656-3.472 3.528v7.392h-3.5v-13.692h3.332v2.408c.679781-1.5742301 2.053858-2.4627037 4.12227-2.6654444l1.33773-.1065556zm13.72 4.9h-9.324c.112001 1.26934.494663 2.211997 1.148 2.828s1.586661.924 2.8.924c1.512008 0 2.893327-.485328 4.144-1.456l1.008 2.408c-.63467.522669-1.432662.942665-2.394 1.26s-1.927328.476-2.898.476c-2.240011 0-4.00866-.63466-5.306-1.904s-1.946-3.005322-1.946-5.208c0-1.400007.279997-2.641328.84-3.724.560003-1.0826721 1.348662-1.9226637 2.366-2.52s2.169994-.896 3.458-.896c1.885343 0 3.373995.6066606 4.466 1.82 1.092005 1.213339 1.638 2.883989 1.638 5.012zm-6.02-5.348c-.933338 0-1.684664.2986637-2.254.896-.569336.597336-.919333 1.455994-1.05 2.576h6.328c-.037334-1.138672-.317331-2.001997-.84-2.59-.522669-.5880029-1.250662-.882-2.184-.882zm20.888 5.348h-9.324c.112001 1.26934.494663 2.211997 1.148 2.828s1.586661.924 2.8.924c1.512008 0 2.893327-.485328 4.144-1.456l1.008 2.408c-.63467.522669-1.432662.942665-2.394 1.26s-1.927328.476-2.898.476c-2.240011 0-4.00866-.63466-5.306-1.904s-1.946-3.005322-1.946-5.208c0-1.400007.279997-2.641328.84-3.724.560003-1.0826721 1.348662-1.9226637 2.366-2.52s2.169994-.896 3.458-.896c1.885343 0 3.373995.6066606 4.466 1.82 1.092005 1.213339 1.638 2.883989 1.638 5.012zm-6.02-5.348c-.933338 0-1.684664.2986637-2.254.896-.569336.597336-.919333 1.455994-1.05 2.576h6.328c-.037334-1.138672-.317331-2.001997-.84-2.59-.522669-.5880029-1.250662-.882-2.184-.882zm30.044-8.176h3.388v19.74h-2.716l-10.584-13.776v13.776h-3.36v-19.74h2.688l10.584 13.748zm13.58 19.964c-1.400007 0-2.627328-.28933-3.682-.868s-1.87133-1.409328-2.45-2.492-.868-2.342659-.868-3.78.28933-2.692661.868-3.766c.57867-1.0733387 1.395328-1.8993304 2.45-2.478s2.281993-.868 3.682-.868 2.627328.2893304 3.682.868 1.866664 1.4046613 2.436 2.478c.569336 1.073339.854 2.328659.854 3.766s-.284664 2.697328-.854 3.78-1.381328 1.91333-2.436 2.492-2.281993.868-3.682.868zm-.028-2.716c1.138672 0 2.006664-.37333 2.604-1.12s.896-1.847993.896-3.304c0-1.437341-.298664-2.533996-.896-3.29s-1.455994-1.134-2.576-1.134-1.98333.377996-2.59 1.134-.91 1.852659-.91 3.29c0 1.456007.298664 2.55733.896 3.304s1.455994 1.12 2.576 1.12zm23.1-17.248v19.74h-3.472v-2.212c-.410669.765337-1.003329 1.362665-1.778 1.792s-1.656662.644-2.646.644c-1.176006 0-2.225995-.298664-3.15-.896s-1.642664-1.441995-2.156-2.534-.77-2.347326-.77-3.766.256664-2.659995.77-3.724c.513336-1.0640053 1.227329-1.8853304 2.142-2.464s1.969327-.868 3.164-.868c.989338 0 1.866663.2053313 2.632.616s1.353331.9893296 1.764 1.736v-8.064zm-6.972 17.248c1.120006 0 1.98333-.382663 2.59-1.148s.91-1.857326.91-3.276-.30333-2.505996-.91-3.262-1.460661-1.134-2.562-1.134c-1.120006 0-1.987997.37333-2.604 1.12s-.924 1.819993-.924 3.22c0 1.418674.307997 2.519996.924 3.304s1.474661 1.176 2.576 1.176zm22.596-3.724h-9.324c.112001 1.26934.494663 2.211997 1.148 2.828s1.586661.924 2.8.924c1.512008 0 2.893327-.485328 4.144-1.456l1.008 2.408c-.63467.522669-1.432662.942665-2.394 1.26s-1.927328.476-2.898.476c-2.240011 0-4.00866-.63466-5.306-1.904s-1.946-3.005322-1.946-5.208c0-1.400007.279997-2.641328.84-3.724.560003-1.0826721 1.348662-1.9226637 2.366-2.52s2.169994-.896 3.458-.896c1.885343 0 3.373995.6066606 4.466 1.82 1.092005 1.213339 1.638 2.883989 1.638 5.012zm-6.02-5.348c-.933338 0-1.684664.2986637-2.254.896-.569336.597336-.919333 1.455994-1.05 2.576h6.328c-.037334-1.138672-.317331-2.001997-.84-2.59-.522669-.5880029-1.250662-.882-2.184-.882zm21.42 11.564v-16.772h-6.44v-2.968h16.492v2.968h-6.44v16.772zm24.22-6.216h-9.324c.112001 1.26934.494663 2.211997 1.148 2.828s1.586661.924 2.8.924c1.512008 0 2.893327-.485328 4.144-1.456l1.008 2.408c-.63467.522669-1.432662.942665-2.394 1.26s-1.927328.476-2.898.476c-2.240011 0-4.00866-.63466-5.306-1.904s-1.946-3.005322-1.946-5.208c0-1.400007.279997-2.641328.84-3.724.560003-1.0826721 1.348662-1.9226637 2.366-2.52s2.169994-.896 3.458-.896c1.885343 0 3.373995.6066606 4.466 1.82 1.092005 1.213339 1.638 2.883989 1.638 5.012zm-6.02-5.348c-.933338 0-1.684664.2986637-2.254.896-.569336.597336-.919333 1.455994-1.05 2.576h6.328c-.037334-1.138672-.317331-2.001997-.84-2.59-.522669-.5880029-1.250662-.882-2.184-.882zm17.892.448-2.044.196c-2.314678.242668-3.472 1.418656-3.472 3.528v7.392h-3.5v-13.692h3.332v2.408c.679781-1.5742301 2.053858-2.4627037 4.12227-2.6654444l1.33773-.1065556zm17.976-2.912c1.549341 0 2.706663.4619954 3.472 1.386s1.148 2.33799 1.148 4.242v8.4h-3.5v-8.26c0-1.045339-.177332-1.805998-.532-2.282-.354668-.4760024-.923996-.714-1.708-.714-.933338 0-1.661331.31733-2.184.952s-.784 1.521328-.784 2.66v7.644h-3.5v-8.26c0-1.045339-.172665-1.805998-.518-2.282-.345335-.4760024-.919329-.714-1.722-.714-.914671 0-1.633331.31733-2.156.952s-.784 1.521328-.784 2.66v7.644h-3.5v-13.692h3.416v1.932c.410669-.7466704.979996-1.3113314 1.708-1.694s1.558662-.574 2.492-.574c2.07201 0 3.443997.8586581 4.116 2.576.429335-.8026707 1.045329-1.4326644 1.848-1.89s1.698662-.686 2.688-.686zm8.176 14.028v-13.692h3.5v13.692zm-.196-20.048h3.864v3.444h-3.864zm15.26 6.02c1.642675 0 2.865329.466662 3.668 1.4s1.204 2.342657 1.204 4.228v8.4h-3.5v-8.204c0-1.064005-.200665-1.838664-.602-2.324-.401335-.4853358-1.031329-.728-1.89-.728-1.008005 0-1.81533.31733-2.422.952s-.91 1.483995-.91 2.548v7.756h-3.5v-13.692h3.416v2.044c.466669-.7653372 1.091996-1.3533313 1.876-1.764s1.670662-.616 2.66-.616zm14.672 14.252c-1.400007 0-2.627328-.28933-3.682-.868s-1.87133-1.409328-2.45-2.492-.868-2.342659-.868-3.78.28933-2.692661.868-3.766c.57867-1.0733387 1.395328-1.8993304 2.45-2.478s2.281993-.868 3.682-.868 2.627328.2893304 3.682.868 1.866664 1.4046613 2.436 2.478c.569336 1.073339.854 2.328659.854 3.766s-.284664 2.697328-.854 3.78-1.381328 1.91333-2.436 2.492-2.281993.868-3.682.868zm-.028-2.716c1.138672 0 2.006664-.37333 2.604-1.12s.896-1.847993.896-3.304c0-1.437341-.298664-2.533996-.896-3.29s-1.455994-1.134-2.576-1.134-1.98333.377996-2.59 1.134-.91 1.852659-.91 3.29c0 1.456007.298664 2.55733.896 3.304s1.455994 1.12 2.576 1.12zm9.884 2.492v-19.74h3.5v19.74zm13.356.224c-1.400007 0-2.627328-.28933-3.682-.868s-1.87133-1.409328-2.45-2.492-.868-2.342659-.868-3.78.28933-2.692661.868-3.766c.57867-1.0733387 1.395328-1.8993304 2.45-2.478s2.281993-.868 3.682-.868 2.627328.2893304 3.682.868 1.866664 1.4046613 2.436 2.478c.569336 1.073339.854 2.328659.854 3.766s-.284664 2.697328-.854 3.78-1.381328 1.91333-2.436 2.492-2.281993.868-3.682.868zm-.028-2.716c1.138672 0 2.006664-.37333 2.604-1.12s.896-1.847993.896-3.304c0-1.437341-.298664-2.533996-.896-3.29s-1.455994-1.134-2.576-1.134-1.98333.377996-2.59 1.134-.91 1.852659-.91 3.29c0 1.456007.298664 2.55733.896 3.304s1.455994 1.12 2.576 1.12zm23.212-11.2v12.432c0 2.146677-.592661 3.770661-1.778 4.872s-2.935322 1.652-5.25 1.652c-1.194673 0-2.342661-.153998-3.444-.462s-2.062663-.741997-2.884-1.302l.98-2.464c1.698675 1.026672 3.453324 1.54 5.264 1.54 2.426679 0 3.64-1.194655 3.64-3.584v-1.792c-.410669.765337-1.007996 1.357998-1.792 1.778s-1.679995.63-2.688.63c-1.194673 0-2.253995-.284664-3.178-.854s-1.647331-1.367328-2.17-2.394-.784-2.211993-.784-3.556.256664-2.533995.77-3.57c.513336-1.0360052 1.236662-1.8386638 2.17-2.408s1.997327-.854 3.192-.854c1.008005 0 1.903996.2099979 2.688.63s1.381331 1.0126628 1.792 1.778v-2.072zm-7.028 10.584c1.120006 0 1.992664-.363996 2.618-1.092s.938-1.72666.938-2.996c0-1.288006-.312664-2.295996-.938-3.024s-1.497994-1.092-2.618-1.092c-1.101339 0-1.96933.363996-2.604 1.092s-.952 1.735994-.952 3.024c0 1.250673.31733 2.244663.952 2.982s1.502661 1.106 2.604 1.106zm20.244-10.556h3.444l-8.232 18.704h-3.528l2.492-5.572-5.712-13.132h3.696l3.864 9.66z" fill="#fff" fill-rule="nonzero"/><path d="m260 477h170v60h-170z" stroke="#757f97" stroke-width="2"/><path d="m780 477h170v60h-170z" stroke="#757f97" stroke-width="2"/><g fill-rule="nonzero"><path d="m202.54 734v-14.1h2.5v14.1zm5.08 0v-9.78h2.5v9.78zm-.14-14.32h2.76v2.46h-2.76zm9.68 14.48c-1 0-1.876663-.206665-2.63-.62s-1.336665-1.006663-1.75-1.78-.62-1.673328-.62-2.7.206665-1.923329.62-2.69.996663-1.356665 1.75-1.77 1.63-.62 2.63-.62 1.876663.206665 2.63.62 1.333331 1.003329 1.74 1.77.61 1.663328.61 2.69-.203331 1.926663-.61 2.7-.986663 1.366665-1.74 1.78-1.63.62-2.63.62zm-.02-1.94c.813337 0 1.433331-.266664 1.86-.8s.64-1.319995.64-2.36c0-1.026672-.213331-1.809997-.64-2.35s-1.039996-.81-1.84-.81-1.416664.269997-1.85.81c-.433335.540003-.65 1.323328-.65 2.35 0 1.040005.213331 1.826664.64 2.36s1.039996.8 1.84.8zm12.74-8.24c1.173339 0 2.046664.33333 2.62 1s.86 1.673327.86 3.02v6h-2.5v-5.86c0-.760004-.143332-1.313332-.43-1.66s-.736664-.52-1.35-.52c-.720004 0-1.296665.226664-1.73.68-.433336.453336-.65 1.059996-.65 1.82v5.54h-2.5v-9.78h2.44v1.46c.333335-.546669.779997-.966665 1.34-1.26s1.19333-.44 1.9-.44zm5.8 7.26h2.8v2.76h-2.8zm7.68 2.32c0 1.37334-.319997 2.37333-.96 3s-1.706659.986666-3.2 1.08l-.94.06-.18-1.82.98-.08c.613336-.04 1.066665-.203332 1.36-.49s.44-.72333.44-1.31v-9.78h2.5zm-2.66-13.88h2.76v2.46h-2.76zm10.86 4.3c.840004 0 1.589997.213331 2.25.64s1.173331 1.029996 1.54 1.81c.366668.780004.55 1.676662.55 2.69s-.183332 1.899996-.55 2.66c-.366669.760004-.876663 1.346665-1.53 1.76s-1.406662.62-2.26.62c-.693337 0-1.313331-.146665-1.86-.44s-.966665-.699997-1.26-1.22v5.1h-2.5v-13.38h2.46v1.48c.293335-.546669.716664-.969999 1.27-1.27s1.18333-.45 1.89-.45zm-.66 8.24c.786671 0 1.399998-.269997 1.84-.81s.66-1.303328.66-2.29c0-1.013338-.219998-1.799997-.66-2.36s-1.053329-.84-1.84-.84c-.800004 0-1.416664.273331-1.85.82-.433335.546669-.65 1.326662-.65 2.34 0 1.000005.216665 1.773331.65 2.32.433336.546669 1.049996.82 1.85.82z" fill="#fff"/><path d="m261.8 723.98c.720004 0 1.359997.149998 1.92.45.560003.300001.986665.723331 1.28 1.27v-1.48h2.48v8.88c0 1.533341-.423329 2.693329-1.27 3.48s-2.096658 1.18-3.75 1.18c-.853338 0-1.673329-.109999-2.46-.33s-1.47333-.529998-2.06-.93l.7-1.76c1.213339.733337 2.46666 1.1 3.76 1.1 1.733342 0 2.6-.853325 2.6-2.56v-1.28c-.293335.546669-.719997.969998-1.28 1.27-.560003.300001-1.199996.45-1.92.45-.853338 0-1.609997-.203331-2.27-.61s-1.176665-.976663-1.55-1.71-.56-1.579995-.56-2.54.183331-1.809996.55-2.55c.366668-.740004.88333-1.313331 1.55-1.72s1.426662-.61 2.28-.61zm.66 1.94c-.786671 0-1.406664.259997-1.86.78s-.68 1.239995-.68 2.16c0 .893338.226664 1.603331.68 2.13s1.073329.79 1.86.79c.800004 0 1.423331-.259997 1.87-.78s.67-1.233329.67-2.14c0-.920005-.223331-1.639997-.67-2.16s-1.069996-.78-1.87-.78z" fill="#fff"/><path d="m721.66 724.24h2.46l-4.28 9.76h-2.18l-4.24-9.76h2.64l2.76 6.9zm8.12 9.92c-1 0-1.876663-.206665-2.63-.62s-1.336665-1.006663-1.75-1.78-.62-1.673328-.62-2.7.206665-1.923329.62-2.69.996663-1.356665 1.75-1.77 1.63-.62 2.63-.62 1.876663.206665 2.63.62 1.333331 1.003329 1.74 1.77.61 1.663328.61 2.69-.203331 1.926663-.61 2.7-.986663 1.366665-1.74 1.78-1.63.62-2.63.62zm-.02-1.94c.813337 0 1.433331-.266664 1.86-.8s.64-1.319995.64-2.36c0-1.026672-.213331-1.809997-.64-2.35s-1.039996-.81-1.84-.81-1.416665.269997-1.85.81c-.433336.540003-.65 1.323328-.65 2.35 0 1.040005.213331 1.826664.64 2.36s1.039996.8 1.84.8zm20.26-8h2.44l-3.84 9.78h-2.18l-2.4-6.3-2.34 6.3h-2.16l-3.86-9.78h2.56l2.5 6.8 2.5-6.8h1.8l2.5 6.84zm7.52 9.94c-.866671 0-1.66333-.106666-2.39-.32s-1.343331-.519998-1.85-.92l.7-1.74c1.040005.760004 2.233327 1.14 3.58 1.14.573336 0 1.009998-.093332 1.31-.28.300001-.186668.45-.453332.45-.8 0-.293335-.103332-.519999-.31-.68s-.576664-.306666-1.11-.44l-1.6-.36c-.906671-.200001-1.579998-.526664-2.02-.98s-.66-1.039996-.66-1.76c0-.600003.169998-1.129998.51-1.59s.81333-.816665 1.42-1.07 1.309996-.38 2.11-.38c.693337 0 1.36333.106666 2.01.32s1.216664.513331 1.71.9l-.7 1.7c-1.013338-.733337-2.026662-1.1-3.04-1.1-.546669 0-.973332.099999-1.28.3s-.46.479998-.46.84c0 .266668.096666.486666.29.66s.503331.306666.93.4l1.66.38c.973338.213334 1.686664.549998 2.14 1.01s.68 1.06333.68 1.81c0 .906671-.366663 1.626664-1.1 2.16s-1.72666.8-2.98.8zm5.88-2.92h2.8v2.76h-2.8zm7.68 2.32c0 1.37334-.319997 2.37333-.96 3s-1.706659.986666-3.2 1.08l-.94.06-.18-1.82.98-.08c.613336-.04 1.066665-.203332 1.36-.49s.44-.72333.44-1.31v-9.78h2.5zm-2.66-13.88h2.76v2.46h-2.76zm10.86 4.3c.840004 0 1.589997.213331 2.25.64s1.173331 1.029996 1.54 1.81c.366668.780004.55 1.676662.55 2.69s-.183332 1.899996-.55 2.66c-.366669.760004-.876663 1.346665-1.53 1.76s-1.406662.62-2.26.62c-.693337 0-1.313331-.146665-1.86-.44s-.966665-.699997-1.26-1.22v5.1h-2.5v-13.38h2.46v1.48c.293335-.546669.716664-.969999 1.27-1.27s1.18333-.45 1.89-.45zm-.66 8.24c.786671 0 1.399998-.269997 1.84-.81s.66-1.303328.66-2.29c0-1.013338-.219998-1.799997-.66-2.36s-1.053329-.84-1.84-.84c-.800004 0-1.416665.273331-1.85.82-.433336.546669-.65 1.326662-.65 2.34 0 1.000005.216664 1.773331.65 2.32.433335.546669 1.049996.82 1.85.82z" fill="#fff"/><path d="m789.54 723.98c.720004 0 1.359997.149998 1.92.45.560003.300001.986665.723331 1.28 1.27v-1.48h2.48v8.88c0 1.533341-.423329 2.693329-1.27 3.48s-2.096658 1.18-3.75 1.18c-.853338 0-1.673329-.109999-2.46-.33s-1.47333-.529998-2.06-.93l.7-1.76c1.213339.733337 2.46666 1.1 3.76 1.1 1.733342 0 2.6-.853325 2.6-2.56v-1.28c-.293335.546669-.719997.969998-1.28 1.27-.560003.300001-1.199996.45-1.92.45-.853338 0-1.609997-.203331-2.27-.61s-1.176665-.976663-1.55-1.71-.56-1.579995-.56-2.54.183332-1.809996.55-2.55c.366669-.740004.88333-1.313331 1.55-1.72s1.426662-.61 2.28-.61zm.66 1.94c-.786671 0-1.406664.259997-1.86.78s-.68 1.239995-.68 2.16c0 .893338.226664 1.603331.68 2.13s1.073329.79 1.86.79c.800004 0 1.423331-.259997 1.87-.78s.67-1.233329.67-2.14c0-.920005-.223331-1.639997-.67-2.16s-1.069996-.78-1.87-.78z" fill="#fff"/><path d="m418.45 724.22v8.88c0 1.533341-.423329 2.693329-1.27 3.48s-2.096658 1.18-3.75 1.18c-.853338 0-1.673329-.109999-2.46-.33s-1.47333-.529998-2.06-.93l.7-1.76c1.213339.733337 2.46666 1.1 3.76 1.1 1.733342 0 2.6-.853325 2.6-2.56v-1.28c-.293335.546669-.719997.969998-1.28 1.27-.560003.300001-1.199996.45-1.92.45-.853338 0-1.609997-.203331-2.27-.61s-1.176665-.976663-1.55-1.71-.56-1.579995-.56-2.54.183331-1.809996.55-2.55.88333-1.313331 1.55-1.72 1.426662-.61 2.28-.61c.720004 0 1.359997.149999 1.92.45s.986665.723331 1.28 1.27v-1.48zm-5.02 7.56c.800004 0 1.423331-.259997 1.87-.78s.67-1.233329.67-2.14c0-.920005-.223331-1.639997-.67-2.16s-1.069996-.78-1.87-.78c-.786671 0-1.406664.259997-1.86.78s-.68 1.239995-.68 2.16c0 .893338.226664 1.603331.68 2.13s1.073329.79 1.86.79zm7.6 2.22v-9.78h2.5v9.78zm-.14-14.32h2.76v2.46h-2.76zm11.66 6.38-1.46.14c-1.653342.173334-2.48 1.013326-2.48 2.52v5.28h-2.5v-9.78h2.38v1.72c.478521-1.108154 1.438697-1.740576 2.880554-1.897284l1.019446-.082716zm5.42-2.08c1.37334 0 2.39333.33333 3.06 1s1 1.693326 1 3.08v5.94h-2.38v-1.5c-.226668.520003-.583331.926665-1.07 1.22s-1.049997.44-1.69.44c-.653337 0-1.246664-.133332-1.78-.4s-.953332-.633331-1.26-1.1-.46-.986664-.46-1.56c0-.720004.183331-1.286665.55-1.7s.963329-.713332 1.79-.9c.757782-.171112 1.778837-.263796 3.063193-.278056l.856807-.001944v-.46c0-.66667-.143332-1.146665-.43-1.44s-.76333-.44-1.43-.44c-.520003 0-1.06333.089999-1.63.27s-1.123331.429998-1.67.75l-.7-1.72c.546669-.346668 1.206663-.633332 1.98-.86s1.506663-.34 2.2-.34zm-.58 8.38c.66667 0 1.209998-.223331 1.63-.67s.63-1.02333.63-1.73v-.42h-.36c-.893338 0-1.586664.04-2.08.12s-.846666.219999-1.06.42-.32.473332-.32.82c0 .426669.146665.776665.44 1.05s.666664.41 1.12.41zm10.36-8.14h2.58v1.88h-2.58v7.9h-2.5v-7.9h-1.88v-1.88h1.88c0-1.4.36333-2.45333 1.09-3.16.678226-.659559 1.707786-1.046163 3.08871-1.159822l1.28129-.080178.16 1.86-.94.04c-.786671.04-1.346665.216665-1.68.53s-.5.816663-.5 1.51zm7.16 0h2.58v1.88h-2.58v7.9h-2.5v-7.9h-1.88v-1.88h1.88c0-1.4.36333-2.45333 1.09-3.16.678226-.659559 1.707786-1.046163 3.08871-1.159822l1.28129-.080178.16 1.86-.94.04c-.786671.04-1.346665.216665-1.68.53s-.5.816663-.5 1.51zm12.56 5.34h-6.66c.08.906671.353331 1.579998.82 2.02s1.133329.66 2 .66c1.080005 0 2.066662-.346663 2.96-1.04l.72 1.72c-.453336.373335-1.02333.673332-1.71.9s-1.376663.34-2.07.34c-1.600008 0-2.863329-.453329-3.79-1.36s-1.39-2.146659-1.39-3.72c0-1.000005.199998-1.886663.6-2.66.4-.773337.96333-1.373331 1.69-1.8s1.549995-.64 2.47-.64c1.346673 0 2.409996.433329 3.19 1.3s1.17 2.059992 1.17 3.58zm-4.3-3.82c-.66667 0-1.203331.213331-1.61.64s-.656666 1.039996-.75 1.84h4.52c-.026667-.813337-.226665-1.429998-.6-1.85s-.89333-.63-1.56-.63zm6.12 5.5h2.8v2.76h-2.8zm7.68 2.32c0 1.37334-.319997 2.37333-.96 3s-1.706659.986666-3.2 1.08l-.94.06-.18-1.82.98-.08c.613336-.04 1.066665-.203332 1.36-.49s.44-.72333.44-1.31v-9.78h2.5zm-2.66-13.88h2.76v2.46h-2.76zm10.86 4.3c.840004 0 1.589997.213331 2.25.64s1.173331 1.029996 1.54 1.81c.366668.780004.55 1.676662.55 2.69s-.183332 1.899996-.55 2.66c-.366669.760004-.876663 1.346665-1.53 1.76s-1.406662.62-2.26.62c-.693337 0-1.313331-.146665-1.86-.44s-.966665-.699997-1.26-1.22v5.1h-2.5v-13.38h2.46v1.48c.293335-.546669.716664-.969999 1.27-1.27s1.18333-.45 1.89-.45zm-.66 8.24c.786671 0 1.399998-.269997 1.84-.81s.66-1.303328.66-2.29c0-1.013338-.219998-1.799997-.66-2.36s-1.053329-.84-1.84-.84c-.800004 0-1.416665.273331-1.85.82-.433336.546669-.65 1.326662-.65 2.34 0 1.000005.216664 1.773331.65 2.32.433335.546669 1.049996.82 1.85.82z" fill="#fff"/><path d="m495.41 723.98c.720004 0 1.359997.149998 1.92.45.560003.300001.986665.723331 1.28 1.27v-1.48h2.48v8.88c0 1.533341-.423329 2.693329-1.27 3.48s-2.096658 1.18-3.75 1.18c-.853338 0-1.673329-.109999-2.46-.33s-1.47333-.529998-2.06-.93l.7-1.76c1.213339.733337 2.46666 1.1 3.76 1.1 1.733342 0 2.6-.853325 2.6-2.56v-1.28c-.293335.546669-.719997.969998-1.28 1.27-.560003.300001-1.199996.45-1.92.45-.853338 0-1.609997-.203331-2.27-.61s-1.176665-.976663-1.55-1.71-.56-1.579995-.56-2.54.183331-1.809996.55-2.55c.366668-.740004.88333-1.313331 1.55-1.72s1.426662-.61 2.28-.61zm.66 1.94c-.786671 0-1.406664.259997-1.86.78s-.68 1.239995-.68 2.16c0 .893338.226664 1.603331.68 2.13s1.073329.79 1.86.79c.800004 0 1.423331-.259997 1.87-.78s.67-1.233329.67-2.14c0-.920005-.223331-1.639997-.67-2.16s-1.069996-.78-1.87-.78z" fill="#fff"/><path d="m321 759h-172v-62h172zm-2-60h-168v58h168z" fill="#757f97"/><path d="m841 759h-172v-62h172zm-2-60h-168v58h168z" fill="#757f97"/><path d="m541 759h-172v-62h172zm-2-60h-168v58h168z" fill="#757f97"/><path d="m1061 759h-172v-62h172zm-2-60h-168v58h168z" fill="#757f97"/><path d="m693 317h-172v-62h172zm-2-60h-168v58h168z" fill="#757f97"/><path d="m606.5 316v33.507813l-262-.000001v127.492188h1v-126.492188l262 .000001v-34.507813z" fill="#757f97"/><path d="m346.5 537v33.507813l-112-.000001v127.492188h1v-126.492188l112 .000001v-34.507813z" fill="#757f97"/><path d="m866.5 537v33.507813l-112-.000001v127.492188h1v-126.492188l112 .000001v-34.507813z" fill="#757f97"/><path d="m864.5 316v33.507812h-258v127.492188h1v-126.492188h258v-34.507812z" fill="#757f97" transform="matrix(-1 0 0 1 1472 0)"/><path d="m454.5 537v33.507813l-108-.000001v127.492188h1v-126.492187h108v-34.507813z" fill="#757f97" transform="matrix(-1 0 0 1 802 0)"/><path d="m974.5 537v33.507812h-108v127.492188h1v-126.492188l108 .000001v-34.507813z" fill="#757f97" transform="matrix(-1 0 0 1 1842 0)"/><path d="m409 508h6c.552285 0 1-.447715 1-1s-.447715-1-1-1h-6c-.552285 0-1 .447715-1 1s.447715 1 1 1zm12 0h6c.552285 0 1-.447715 1-1s-.447715-1-1-1h-6c-.552285 0-1 .447715-1 1s.447715 1 1 1zm12 0h6c.552285 0 1-.447715 1-1s-.447715-1-1-1h-6c-.552285 0-1 .447715-1 1s.447715 1 1 1zm12 0h6c.552285 0 1-.447715 1-1s-.447715-1-1-1h-6c-.552285 0-1 .447715-1 1s.447715 1 1 1zm12 0h6c.552285 0 1-.447715 1-1s-.447715-1-1-1h-6c-.552285 0-1 .447715-1 1s.447715 1 1 1zm12 0h6c.552285 0 1-.447715 1-1s-.447715-1-1-1h-6c-.552285 0-1 .447715-1 1s.447715 1 1 1zm12 0h6c.552285 0 1-.447715 1-1s-.447715-1-1-1h-6c-.552285 0-1 .447715-1 1s.447715 1 1 1zm12 0h6c.552285 0 1-.447715 1-1s-.447715-1-1-1h-6c-.552285 0-1 .447715-1 1s.447715 1 1 1zm12 0h6c.552285 0 1-.447715 1-1s-.447715-1-1-1h-6c-.552285 0-1 .447715-1 1s.447715 1 1 1zm12 0h6c.552285 0 1-.447715 1-1s-.447715-1-1-1h-6c-.552285 0-1 .447715-1 1s.447715 1 1 1zm12 0h6c.552285 0 1-.447715 1-1s-.447715-1-1-1h-6c-.552285 0-1 .447715-1 1s.447715 1 1 1zm12 0h6c.552285 0 1-.447715 1-1s-.447715-1-1-1h-6c-.552285 0-1 .447715-1 1s.447715 1 1 1zm12 0h6c.552285 0 1-.447715 1-1s-.447715-1-1-1h-6c-.552285 0-1 .447715-1 1s.447715 1 1 1zm12 0h6c.552285 0 1-.447715 1-1s-.447715-1-1-1h-6c-.552285 0-1 .447715-1 1s.447715 1 1 1zm12 0h6c.552285 0 1-.447715 1-1s-.447715-1-1-1h-6c-.552285 0-1 .447715-1 1s.447715 1 1 1zm12 0h6c.552285 0 1-.447715 1-1s-.447715-1-1-1h-6c-.552285 0-1 .447715-1 1s.447715 1 1 1zm12 0h6c.552285 0 1-.447715 1-1s-.447715-1-1-1h-6c-.552285 0-1 .447715-1 1s.447715 1 1 1zm12 0h6c.552285 0 1-.447715 1-1s-.447715-1-1-1h-6c-.552285 0-1 .447715-1 1s.447715 1 1 1zm12 0h6c.552285 0 1-.447715 1-1s-.447715-1-1-1h-6c-.552285 0-1 .447715-1 1s.447715 1 1 1zm12 0h6c.552285 0 1-.447715 1-1s-.447715-1-1-1h-6c-.552285 0-1 .447715-1 1s.447715 1 1 1zm12 0h6c.552285 0 1-.447715 1-1s-.447715-1-1-1h-6c-.552285 0-1 .447715-1 1s.447715 1 1 1zm12 0h6c.552285 0 1-.447715 1-1s-.447715-1-1-1h-6c-.552285 0-1 .447715-1 1s.447715 1 1 1zm12 0h6c.552285 0 1-.447715 1-1s-.447715-1-1-1h-6c-.552285 0-1 .447715-1 1s.447715 1 1 1zm12 0h6c.552285 0 1-.447715 1-1s-.447715-1-1-1h-6c-.552285 0-1 .447715-1 1s.447715 1 1 1zm12 0h6c.552285 0 1-.447715 1-1s-.447715-1-1-1h-6c-.552285 0-1 .447715-1 1s.447715 1 1 1zm12 0h6c.552285 0 1-.447715 1-1s-.447715-1-1-1h-6c-.552285 0-1 .447715-1 1s.447715 1 1 1zm12 0h6c.552285 0 1-.447715 1-1s-.447715-1-1-1h-6c-.552285 0-1 .447715-1 1s.447715 1 1 1zm12 0h6c.552285 0 1-.447715 1-1s-.447715-1-1-1h-6c-.552285 0-1 .447715-1 1s.447715 1 1 1zm12 0h6c.552285 0 1-.447715 1-1s-.447715-1-1-1h-6c-.552285 0-1 .447715-1 1s.447715 1 1 1zm12 0h6c.552285 0 1-.447715 1-1s-.447715-1-1-1h-6c-.552285 0-1 .447715-1 1s.447715 1 1 1zm12 0h6c.552285 0 1-.447715 1-1s-.447715-1-1-1h-6c-.552285 0-1 .447715-1 1s.447715 1 1 1zm12 0h6c.552285 0 1-.447715 1-1s-.447715-1-1-1h-6c-.552285 0-1 .447715-1 1s.447715 1 1 1zm12 0h6c.552285 0 1-.447715 1-1s-.447715-1-1-1h-6c-.552285 0-1 .447715-1 1s.447715 1 1 1zm12 0h4c.552285 0 1-.447715 1-1s-.447715-1-1-1h-4c-.552285 0-1 .447715-1 1s.447715 1 1 1z" fill="#4c7ef3"/><path d="m143 508h6c.552285 0 1-.447715 1-1s-.447715-1-1-1h-6c-.552285 0-1 .447715-1 1s.447715 1 1 1zm12 0h6c.552285 0 1-.447715 1-1s-.447715-1-1-1h-6c-.552285 0-1 .447715-1 1s.447715 1 1 1zm12 0h6c.552285 0 1-.447715 1-1s-.447715-1-1-1h-6c-.552285 0-1 .447715-1 1s.447715 1 1 1zm12 0h6c.552285 0 1-.447715 1-1s-.447715-1-1-1h-6c-.552285 0-1 .447715-1 1s.447715 1 1 1zm12 0h6c.552285 0 1-.447715 1-1s-.447715-1-1-1h-6c-.552285 0-1 .447715-1 1s.447715 1 1 1zm12 0h6c.552285 0 1-.447715 1-1s-.447715-1-1-1h-6c-.552285 0-1 .447715-1 1s.447715 1 1 1zm12 0h6c.552285 0 1-.447715 1-1s-.447715-1-1-1h-6c-.552285 0-1 .447715-1 1s.447715 1 1 1zm12 0h6c.552285 0 1-.447715 1-1s-.447715-1-1-1h-6c-.552285 0-1 .447715-1 1s.447715 1 1 1zm12 0h6c.552285 0 1-.447715 1-1s-.447715-1-1-1h-6c-.552285 0-1 .447715-1 1s.447715 1 1 1zm12 0h6c.552285 0 1-.447715 1-1s-.447715-1-1-1h-6c-.552285 0-1 .447715-1 1s.447715 1 1 1zm12 0h6c.552285 0 1-.447715 1-1s-.447715-1-1-1h-6c-.552285 0-1 .447715-1 1s.447715 1 1 1zm12 0h6c.552285 0 1-.447715 1-1s-.447715-1-1-1h-6c-.552285 0-1 .447715-1 1s.447715 1 1 1z" fill="#4c7ef3"/><path d="m404.5 288h6c.552285 0 1-.447715 1-1s-.447715-1-1-1h-6c-.552285 0-1 .447715-1 1s.447715 1 1 1zm12 0h6c.552285 0 1-.447715 1-1s-.447715-1-1-1h-6c-.552285 0-1 .447715-1 1s.447715 1 1 1zm12 0h6c.552285 0 1-.447715 1-1s-.447715-1-1-1h-6c-.552285 0-1 .447715-1 1s.447715 1 1 1zm12 0h6c.552285 0 1-.447715 1-1s-.447715-1-1-1h-6c-.552285 0-1 .447715-1 1s.447715 1 1 1zm12 0h6c.552285 0 1-.447715 1-1s-.447715-1-1-1h-6c-.552285 0-1 .447715-1 1s.447715 1 1 1zm12 0h6c.552285 0 1-.447715 1-1s-.447715-1-1-1h-6c-.552285 0-1 .447715-1 1s.447715 1 1 1zm12 0h6c.552285 0 1-.447715 1-1s-.447715-1-1-1h-6c-.552285 0-1 .447715-1 1s.447715 1 1 1zm12 0h6c.552285 0 1-.447715 1-1s-.447715-1-1-1h-6c-.552285 0-1 .447715-1 1s.447715 1 1 1zm12 0h6c.552285 0 1-.447715 1-1s-.447715-1-1-1h-6c-.552285 0-1 .447715-1 1s.447715 1 1 1zm12 0h6c.552285 0 1-.447715 1-1s-.447715-1-1-1h-6c-.552285 0-1 .447715-1 1s.447715 1 1 1zm12 0h6c.552285 0 1-.447715 1-1s-.447715-1-1-1h-6c-.552285 0-1 .447715-1 1s.447715 1 1 1zm12 0h6c.552285 0 1-.447715 1-1s-.447715-1-1-1h-6c-.552285 0-1 .447715-1 1s.447715 1 1 1z" fill="#4c7ef3"/><path d="m670.5 288h6c.552285 0 1-.447715 1-1s-.447715-1-1-1h-6c-.552285 0-1 .447715-1 1s.447715 1 1 1zm12 0h6c.552285 0 1-.447715 1-1s-.447715-1-1-1h-6c-.552285 0-1 .447715-1 1s.447715 1 1 1zm12 0h6c.552285 0 1-.447715 1-1s-.447715-1-1-1h-6c-.552285 0-1 .447715-1 1s.447715 1 1 1zm12 0h6c.552285 0 1-.447715 1-1s-.447715-1-1-1h-6c-.552285 0-1 .447715-1 1s.447715 1 1 1zm12 0h6c.552285 0 1-.447715 1-1s-.447715-1-1-1h-6c-.552285 0-1 .447715-1 1s.447715 1 1 1zm12 0h6c.552285 0 1-.447715 1-1s-.447715-1-1-1h-6c-.552285 0-1 .447715-1 1s.447715 1 1 1zm12 0h6c.552285 0 1-.447715 1-1s-.447715-1-1-1h-6c-.552285 0-1 .447715-1 1s.447715 1 1 1zm12 0h6c.552285 0 1-.447715 1-1s-.447715-1-1-1h-6c-.552285 0-1 .447715-1 1s.447715 1 1 1zm12 0h6c.552285 0 1-.447715 1-1s-.447715-1-1-1h-6c-.552285 0-1 .447715-1 1s.447715 1 1 1zm12 0h6c.552285 0 1-.447715 1-1s-.447715-1-1-1h-6c-.552285 0-1 .447715-1 1s.447715 1 1 1zm12 0h6c.552285 0 1-.447715 1-1s-.447715-1-1-1h-6c-.552285 0-1 .447715-1 1s.447715 1 1 1zm12 0h6c.552285 0 1-.447715 1-1s-.447715-1-1-1h-6c-.552285 0-1 .447715-1 1s.447715 1 1 1z" fill="#4c7ef3"/><path d="m1110.216 733v-11.28h2.064v9.584h5.264v1.696zm15.568-3.552h-5.328c.064.725337.28266 1.263998.656 1.616s.90666.528 1.6.528c.864 0 1.65333-.277331 2.368-.832l.576 1.376c-.36267.298668-.81866.538666-1.368.72s-1.10133.272-1.656.272c-1.28001 0-2.29066-.362663-3.032-1.088s-1.112-1.717327-1.112-2.976c0-.800004.16-1.50933.48-2.128s.77066-1.098665 1.352-1.44 1.24-.512 1.976-.512c1.07734 0 1.928.346663 2.552 1.04s.936 1.647994.936 2.864zm-3.44-3.056c-.53334 0-.96267.170665-1.288.512s-.52533.831997-.6 1.472h3.616c-.02133-.65067-.18133-1.143998-.48-1.48s-.71466-.504-1.248-.504zm8.432-1.408c1.09867 0 1.91466.266664 2.448.8s.8 1.354661.8 2.464v4.752h-1.904v-1.2c-.18133.416002-.46666.741332-.856.976s-.84.352-1.352.352c-.52267 0-.99733-.106666-1.424-.32s-.76267-.506665-1.008-.88-.368-.789331-.368-1.248c0-.576003.14667-1.029332.44-1.36s.77066-.570666 1.432-.72c.5952-.134401 1.39344-.20832 2.39472-.22176l.74128-.00224v-.368c0-.533336-.11467-.917332-.344-1.152s-.61066-.352-1.144-.352c-.416 0-.85066.071999-1.304.216s-.89866.343999-1.336.6l-.56-1.376c.43734-.277335.96533-.506666 1.584-.688s1.20533-.272 1.76-.272zm-.464 6.704c.53334 0 .968-.178665 1.304-.536s.504-.818664.504-1.384v-.336h-.288c-.71467 0-1.26933.032-1.664.096s-.67733.175999-.848.336-.256.378665-.256.656c0 .341335.11733.621332.352.84s.53333.328.896.328zm8.288-6.512h2.064v1.504h-2.064v6.32h-2v-6.32h-1.504v-1.504h1.504c0-1.120006.29066-1.962664.872-2.528s1.48533-.88 2.712-.944l.784-.048.128 1.488-.752.032c-.62934.032-1.07733.173332-1.344.424s-.4.653331-.4 1.208z" fill="#4c7ef3"/><path d="m1038.5 729h6c.55228 0 1-.447715 1-1s-.44772-1-1-1h-6c-.55228 0-1 .447715-1 1s.44772 1 1 1zm12 0h6c.55228 0 1-.447715 1-1s-.44772-1-1-1h-6c-.55228 0-1 .447715-1 1s.44772 1 1 1zm12 0h6c.55228 0 1-.447715 1-1s-.44772-1-1-1h-6c-.55228 0-1 .447715-1 1s.44772 1 1 1zm12 0h6c.55228 0 1-.447715 1-1s-.44772-1-1-1h-6c-.55228 0-1 .447715-1 1s.44772 1 1 1zm12 0h6c.55228 0 1-.447715 1-1s-.44772-1-1-1h-6c-.55228 0-1 .447715-1 1s.44772 1 1 1zm12 0h6c.55228 0 1-.447715 1-1s-.44772-1-1-1h-6c-.55228 0-1 .447715-1 1s.44772 1 1 1z" fill="#4c7ef3"/></g></g></svg>